<?xml version="1.0" encoding="UTF-8"?>
<svg id="Capa_2" data-name="Capa 2" xmlns="http://www.w3.org/2000/svg" xmlns:xlink="http://www.w3.org/1999/xlink" viewBox="0 0 471.59 84.69">
  <defs>
    <style>
      .cls-1 {
        fill: #fff;
      }

      .cls-2 {
        fill: url(#Degradado_sin_nombre_14);
      }
    </style>
    <linearGradient id="Degradado_sin_nombre_14" data-name="Degradado sin nombre 14" x1="0" y1="42.34" x2="471.59" y2="42.34" gradientUnits="userSpaceOnUse">
      <stop offset=".09" stop-color="#000"/>
      <stop offset=".18" stop-color="#000405"/>
      <stop offset=".3" stop-color="#031015"/>
      <stop offset=".43" stop-color="#07232f"/>
      <stop offset=".58" stop-color="#0c3f54"/>
      <stop offset=".73" stop-color="#146183"/>
      <stop offset=".74" stop-color="#156689"/>
      <stop offset=".92" stop-color="#166f90"/>
      <stop offset="1" stop-color="#177596"/>
    </linearGradient>
  </defs>
  <g id="Capa_1-2" data-name="Capa 1">
    <g>
      <rect class="cls-2" width="471.59" height="84.69" rx="10.61" ry="10.61"/>
      <g>
        <path class="cls-1" d="M57.91,56.54h-9.07l-2.55-6.02h-9.83l-2.94,6.02h-4.13l10.71-22.4h8.54l9.28,22.4ZM44.82,46.81l-3.18-7.56-3.43,7.56h6.61Z"/>
        <path class="cls-1" d="M78.03,56.54h-13.72c-1.66,0-2.93-.46-3.81-1.37-.82-.84-1.23-2.02-1.23-3.53v-6.65c0-1.52.43-2.71,1.28-3.59s2.11-1.31,3.76-1.31h13.72v3.22h-8.78c-1.14,0-1.72.56-1.72,1.68v6.65c0,1.12.57,1.68,1.72,1.68h8.78v3.22Z"/>
        <path class="cls-1" d="M98.75,56.54h-11.2c-1.33,0-2.41-.43-3.24-1.28-.83-.85-1.24-1.99-1.24-3.41v-8.54h-3.46v-3.22h3.46v-3.57h8.26v3.57h6.58v3.22h-6.58v8.79c0,.82.44,1.22,1.33,1.22h6.09v3.22Z"/>
        <path class="cls-1" d="M109.88,38.48h-8.26v-4.34h8.26v4.34ZM109.88,56.54h-8.26v-16.45h8.26v16.45Z"/>
        <path class="cls-1" d="M135.26,40.09l-6.72,16.45h-8.79l-7.25-16.45h9.03l5.18,12.18,4.97-12.18h3.57Z"/>
        <path class="cls-1" d="M158.64,50.1h-13.83v1.54c0,1.12.57,1.68,1.72,1.68h11.76v3.22h-17.15c-1.68,0-2.86-.38-3.55-1.15s-1.03-2.02-1.03-3.75v-6.86c0-1.59.35-2.77,1.05-3.54.7-.77,1.88-1.16,3.54-1.16h12.92c1.66,0,2.83.39,3.54,1.16s1.05,1.95,1.05,3.54v5.32ZM150.59,46.88v-2.27c0-.86-.42-1.29-1.26-1.29h-3.25c-.84,0-1.26.43-1.26,1.29v2.27h5.78Z"/>
        <path class="cls-1" d="M177.05,44.68h-4.17c-1.38,0-2.31.18-2.8.54-.49.36-.73,1.03-.73,2.01v9.31h-8.26v-16.45h7.63v2.66h.07c.4-1.03.9-1.73,1.52-2.1.62-.37,1.52-.56,2.71-.56h4.03v4.58Z"/>
        <path class="cls-1" d="M200.71,56.54h-8.26v-22.4h8.26v22.4Z"/>
        <path class="cls-1" d="M225.59,50.1h-13.83v1.54c0,1.12.57,1.68,1.72,1.68h11.76v3.22h-17.15c-1.68,0-2.86-.38-3.55-1.15s-1.03-2.02-1.03-3.75v-6.86c0-1.59.35-2.77,1.05-3.54.7-.77,1.88-1.16,3.54-1.16h12.92c1.66,0,2.83.39,3.54,1.16s1.05,1.95,1.05,3.54v5.32ZM217.54,46.88v-2.27c0-.86-.42-1.29-1.26-1.29h-3.25c-.84,0-1.26.43-1.26,1.29v2.27h5.78Z"/>
        <path class="cls-1" d="M264.62,52.1c0,2.96-1.92,4.44-5.78,4.44h-17.67v-22.4h17.67c2.03,0,3.5.36,4.41,1.08.91.72,1.37,1.84,1.37,3.36v2.91c0,1.26-.47,2.15-1.4,2.66-.68.37-1.83.62-3.46.74v.07c1.8.23,2.99.49,3.57.77.86.44,1.29,1.23,1.29,2.34v4.03ZM256.08,41.84v-2.8c0-.79-.41-1.19-1.22-1.19h-5.15v5.25h5.15c.82,0,1.22-.42,1.22-1.26ZM256.08,51.61v-3.57c0-.82-.41-1.23-1.22-1.23h-5.15v6.02h5.15c.82,0,1.22-.41,1.22-1.23Z"/>
        <path class="cls-1" d="M276.2,56.54h-8.26v-22.4h8.26v22.4Z"/>
        <path class="cls-1" d="M301.61,56.54h-7.88v-1.71c-.47,1.14-1.22,1.71-2.25,1.71h-6.68c-3.63,0-5.45-1.94-5.45-5.81v-10.64h8.26v12.04c0,.79.4,1.19,1.19,1.19h3.43c.75,0,1.12-.4,1.12-1.19v-12.04h8.26v16.45Z"/>
        <path class="cls-1" d="M326.14,50.1h-13.83v1.54c0,1.12.57,1.68,1.72,1.68h11.76v3.22h-17.15c-1.68,0-2.86-.38-3.55-1.15s-1.03-2.02-1.03-3.75v-6.86c0-1.59.35-2.77,1.05-3.54.7-.77,1.88-1.16,3.54-1.16h12.92c1.66,0,2.83.39,3.54,1.16s1.05,1.95,1.05,3.54v5.32ZM318.09,46.88v-2.27c0-.86-.42-1.29-1.26-1.29h-3.25c-.84,0-1.26.43-1.26,1.29v2.27h5.78Z"/>
        <path class="cls-1" d="M347.07,56.54h-11.2c-1.33,0-2.41-.43-3.24-1.28-.83-.85-1.24-1.99-1.24-3.41v-8.54h-3.46v-3.22h3.46v-3.57h8.26v3.57h6.58v3.22h-6.58v8.79c0,.82.44,1.22,1.33,1.22h6.09v3.22Z"/>
        <path class="cls-1" d="M371.64,51.78c0,1.59-.32,2.75-.95,3.5-.72.84-1.92,1.26-3.6,1.26h-13.3c-1.68,0-2.88-.42-3.6-1.26-.63-.75-.95-1.91-.95-3.5v-6.93c0-1.59.32-2.75.95-3.5.72-.84,1.92-1.26,3.6-1.26h13.3c1.68,0,2.88.42,3.6,1.26.63.75.95,1.91.95,3.5v6.93ZM363.38,52.1v-7.56c0-.82-.39-1.23-1.16-1.23h-3.57c-.77,0-1.16.41-1.16,1.23v7.56c0,.82.39,1.22,1.16,1.22h3.57c.77,0,1.16-.41,1.16-1.22Z"/>
        <path class="cls-1" d="M396.14,51.78c0,1.59-.32,2.75-.95,3.5-.72.84-1.92,1.26-3.6,1.26h-13.3c-1.68,0-2.88-.42-3.6-1.26-.63-.75-.95-1.91-.95-3.5v-6.93c0-1.59.32-2.75.95-3.5.72-.84,1.92-1.26,3.6-1.26h13.3c1.68,0,2.88.42,3.6,1.26.63.75.95,1.91.95,3.5v6.93ZM387.88,52.1v-7.56c0-.82-.39-1.23-1.16-1.23h-3.57c-.77,0-1.16.41-1.16,1.23v7.56c0,.82.39,1.22,1.16,1.22h3.57c.77,0,1.16-.41,1.16-1.22Z"/>
        <path class="cls-1" d="M417.07,56.54h-11.2c-1.33,0-2.41-.43-3.24-1.28-.83-.85-1.24-1.99-1.24-3.41v-8.54h-3.46v-3.22h3.46v-3.57h8.26v3.57h6.58v3.22h-6.58v8.79c0,.82.44,1.22,1.33,1.22h6.09v3.22Z"/>
        <path class="cls-1" d="M442.2,56.54h-8.26v-12.04c0-.79-.4-1.19-1.19-1.19h-3.43c-.75,0-1.12.4-1.12,1.19v12.04h-8.26v-22.4h8.26v7.56h.07c.61-1.07,1.22-1.61,1.85-1.61h6.65c3.62,0,5.42,1.94,5.42,5.81v10.64Z"/>
      </g>
    </g>
  </g>
</svg>