<?xml version="1.0" encoding="UTF-8"?>
<svg id="Capa_2" data-name="Capa 2" xmlns="http://www.w3.org/2000/svg" xmlns:xlink="http://www.w3.org/1999/xlink" viewBox="0 0 471.59 84.69">
  <defs>
    <style>
      .cls-1 {
        fill: #fff;
      }

      .cls-2 {
        fill: url(#Degradado_sin_nombre_14);
      }
    </style>
    <linearGradient id="Degradado_sin_nombre_14" data-name="Degradado sin nombre 14" x1="0" y1="42.34" x2="471.59" y2="42.34" gradientUnits="userSpaceOnUse">
      <stop offset=".09" stop-color="#000"/>
      <stop offset=".18" stop-color="#000405"/>
      <stop offset=".3" stop-color="#031015"/>
      <stop offset=".43" stop-color="#07232f"/>
      <stop offset=".58" stop-color="#0c3f54"/>
      <stop offset=".73" stop-color="#146183"/>
      <stop offset=".74" stop-color="#156689"/>
      <stop offset=".92" stop-color="#166f90"/>
      <stop offset="1" stop-color="#177596"/>
    </linearGradient>
  </defs>
  <g id="Capa_1-2" data-name="Capa 1">
    <g>
      <rect class="cls-2" width="471.59" height="84.69" rx="10.61" ry="10.61"/>
      <g>
        <path class="cls-1" d="M35.61,54.45h-9.29l-4.04-9.76h-2.61v9.76h-8.49v-22.47h17.67c1.9,0,3.27.35,4.1,1.05.93.8,1.39,2.11,1.39,3.93v4.32c0,2.27-1.14,3.41-3.41,3.41l4.66,9.76ZM25.87,39.71v-2.74c0-.49-.09-.82-.26-1-.17-.18-.5-.26-.99-.26h-4.94v5.27h4.94c.84,0,1.25-.42,1.25-1.26Z"/>
        <path class="cls-1" d="M58.92,47.99h-13.74v1.54c0,1.12.57,1.68,1.71,1.68h11.69v3.23h-17.04c-1.67,0-2.85-.39-3.53-1.16s-1.03-2.02-1.03-3.76v-6.88c0-1.59.35-2.77,1.04-3.55.7-.77,1.87-1.16,3.51-1.16h12.84c1.65,0,2.82.39,3.51,1.16s1.04,1.95,1.04,3.55v5.34ZM50.91,44.76v-2.28c0-.87-.42-1.3-1.25-1.3h-3.23c-.83,0-1.25.43-1.25,1.3v2.28h5.74Z"/>
        <path class="cls-1" d="M79.65,54.45h-13.64c-1.65,0-2.91-.46-3.79-1.37-.81-.84-1.22-2.02-1.22-3.55v-6.67c0-1.52.42-2.72,1.27-3.6s2.09-1.32,3.74-1.32h13.64v3.23h-8.73c-1.14,0-1.71.56-1.71,1.69v6.67c0,1.12.57,1.68,1.71,1.68h8.73v3.23Z"/>
        <path class="cls-1" d="M104.34,54.45h-8.21v-12.08c0-.8-.4-1.19-1.18-1.19h-3.41c-.74,0-1.11.4-1.11,1.19v12.08h-8.21v-22.47h8.21v7.58h.07c.6-1.08,1.22-1.62,1.84-1.62h6.61c3.59,0,5.39,1.94,5.39,5.83v10.67Z"/>
        <path class="cls-1" d="M128.73,47.99h-13.74v1.54c0,1.12.57,1.68,1.71,1.68h11.69v3.23h-17.04c-1.67,0-2.85-.39-3.53-1.16s-1.03-2.02-1.03-3.76v-6.88c0-1.59.35-2.77,1.04-3.55.7-.77,1.87-1.16,3.51-1.16h12.84c1.65,0,2.82.39,3.51,1.16s1.04,1.95,1.04,3.55v5.34ZM120.73,44.76v-2.28c0-.87-.42-1.3-1.25-1.3h-3.23c-.83,0-1.25.43-1.25,1.3v2.28h5.74Z"/>
        <path class="cls-1" d="M147.02,42.55h-4.14c-1.37,0-2.3.18-2.78.54-.49.36-.73,1.04-.73,2.02v9.34h-8.21v-16.5h7.58v2.67h.07c.39-1.03.9-1.73,1.51-2.11.61-.37,1.51-.56,2.7-.56h4v4.6Z"/>
        <path class="cls-1" d="M167.75,54.45h-13.64c-1.65,0-2.91-.46-3.79-1.37-.81-.84-1.22-2.02-1.22-3.55v-6.67c0-1.52.42-2.72,1.27-3.6s2.09-1.32,3.74-1.32h13.64v3.23h-8.73c-1.14,0-1.71.56-1.71,1.69v6.67c0,1.12.57,1.68,1.71,1.68h8.73v3.23Z"/>
        <path class="cls-1" d="M192.45,54.45h-8.21v-12.08c0-.8-.4-1.19-1.18-1.19h-3.41c-.74,0-1.11.4-1.11,1.19v12.08h-8.21v-22.47h8.21v7.58h.07c.6-1.08,1.22-1.62,1.84-1.62h6.61c3.59,0,5.39,1.94,5.39,5.83v10.67Z"/>
        <path class="cls-1" d="M216.84,47.99h-13.74v1.54c0,1.12.57,1.68,1.71,1.68h11.69v3.23h-17.04c-1.67,0-2.85-.39-3.53-1.16s-1.03-2.02-1.03-3.76v-6.88c0-1.59.35-2.77,1.04-3.55.7-.77,1.87-1.16,3.51-1.16h12.84c1.65,0,2.82.39,3.51,1.16s1.04,1.95,1.04,3.55v5.34ZM208.83,44.76v-2.28c0-.87-.42-1.3-1.25-1.3h-3.23c-.83,0-1.25.43-1.25,1.3v2.28h5.74Z"/>
        <path class="cls-1" d="M235.13,42.55h-4.14c-1.37,0-2.3.18-2.78.54-.49.36-.73,1.04-.73,2.02v9.34h-8.21v-16.5h7.58v2.67h.07c.39-1.03.9-1.73,1.51-2.11.61-.37,1.51-.56,2.7-.56h4v4.6Z"/>
        <path class="cls-1" d="M266.25,54.45h-7.83v-1.72c-.47,1.15-1.21,1.72-2.24,1.72h-6.64c-3.61,0-5.42-1.94-5.42-5.83v-10.67h8.21v12.08c0,.8.39,1.19,1.18,1.19h3.41c.74,0,1.11-.4,1.11-1.19v-12.08h8.21v16.5Z"/>
        <path class="cls-1" d="M291.15,54.45h-8.21v-12.08c0-.8-.4-1.19-1.18-1.19h-3.41c-.74,0-1.11.4-1.11,1.19v12.08h-8.21v-16.5h7.83v1.72h.07c.46-1.15,1.21-1.72,2.23-1.72h6.61c3.59,0,5.39,1.94,5.39,5.83v10.67Z"/>
        <path class="cls-1" d="M321.99,54.45h-7.83v-1.83c-.16.7-.48,1.18-.94,1.44s-1.19.39-2.17.39h-6.22c-1.65,0-2.84-.37-3.57-1.11-.72-.74-1.08-1.98-1.08-3.74v-1.51c0-1.71.35-2.94,1.04-3.69s1.86-1.12,3.48-1.12h9.08v-1.05c0-.7-.42-1.05-1.25-1.05h-11.58v-3.23h15.65c1.78,0,3.11.42,3.96,1.26.95.94,1.43,2.48,1.43,4.63v10.6ZM313.78,49.22v-2.7h-3.62c-.63,0-1.05.08-1.29.25-.33.19-.49.56-.49,1.12v2c0,.89.56,1.33,1.67,1.33h2.23c.63,0,1.03-.13,1.22-.4.19-.27.28-.8.28-1.6Z"/>
        <path class="cls-1" d="M346.72,49.54c0,1.52-.41,2.7-1.22,3.55-.89.91-2.16,1.37-3.81,1.37h-6.64c-1.07,0-1.77-.54-2.1-1.61v7.86h-8.21v-22.75h7.76v1.76c.6-1.17,1.31-1.76,2.12-1.76h7.1c3.34,0,5.01,1.66,5.01,4.99v6.6ZM338.51,50.03v-7.65c0-.8-.39-1.19-1.18-1.19h-3.27c-.74,0-1.11.4-1.11,1.19v7.65c0,.8.37,1.19,1.11,1.19h3.27c.79,0,1.18-.4,1.18-1.19Z"/>
        <path class="cls-1" d="M371.14,49.54c0,1.52-.41,2.7-1.22,3.55-.89.91-2.16,1.37-3.81,1.37h-6.64c-1.07,0-1.77-.54-2.1-1.61v7.86h-8.21v-22.75h7.76v1.76c.6-1.17,1.31-1.76,2.12-1.76h7.1c3.34,0,5.01,1.66,5.01,4.99v6.6ZM362.93,50.03v-7.65c0-.8-.39-1.19-1.18-1.19h-3.27c-.74,0-1.11.4-1.11,1.19v7.65c0,.8.37,1.19,1.11,1.19h3.27c.79,0,1.18-.4,1.18-1.19Z"/>
        <path class="cls-1" d="M395.07,54.45h-7.83v-1.83c-.16.7-.48,1.18-.94,1.44s-1.19.39-2.17.39h-6.22c-1.65,0-2.84-.37-3.57-1.11-.72-.74-1.08-1.98-1.08-3.74v-1.51c0-1.71.35-2.94,1.04-3.69s1.86-1.12,3.48-1.12h9.08v-1.05c0-.7-.42-1.05-1.25-1.05h-11.58v-3.23h15.65c1.78,0,3.11.42,3.96,1.26.95.94,1.43,2.48,1.43,4.63v10.6ZM386.86,49.22v-2.7h-3.62c-.63,0-1.05.08-1.29.25-.33.19-.49.56-.49,1.12v2c0,.89.56,1.33,1.67,1.33h2.23c.63,0,1.03-.13,1.22-.4.19-.27.28-.8.28-1.6Z"/>
        <path class="cls-1" d="M413.68,42.55h-4.14c-1.37,0-2.3.18-2.78.54-.49.36-.73,1.04-.73,2.02v9.34h-8.21v-16.5h7.58v2.67h.07c.39-1.03.9-1.73,1.51-2.11.61-.37,1.51-.56,2.7-.56h4v4.6Z"/>
        <path class="cls-1" d="M437.72,47.99h-13.74v1.54c0,1.12.57,1.68,1.71,1.68h11.69v3.23h-17.04c-1.67,0-2.85-.39-3.53-1.16s-1.03-2.02-1.03-3.76v-6.88c0-1.59.35-2.77,1.04-3.55.7-.77,1.87-1.16,3.51-1.16h12.84c1.65,0,2.82.39,3.51,1.16s1.04,1.95,1.04,3.55v5.34ZM429.72,44.76v-2.28c0-.87-.42-1.3-1.25-1.3h-3.23c-.83,0-1.25.43-1.25,1.3v2.28h5.74Z"/>
        <path class="cls-1" d="M448.71,36.34h-8.21v-4.35h8.21v4.35ZM448.71,54.45h-8.21v-16.5h8.21v16.5Z"/>
        <path class="cls-1" d="M460.4,54.45h-8.21v-22.47h8.21v22.47Z"/>
      </g>
    </g>
  </g>
</svg>