<?xml version="1.0" encoding="UTF-8"?>
<svg id="Capa_2" data-name="Capa 2" xmlns="http://www.w3.org/2000/svg" xmlns:xlink="http://www.w3.org/1999/xlink" viewBox="0 0 291.91 72.68">
  <defs>
    <style>
      .cls-1 {
        fill: #fff;
      }

      .cls-2 {
        fill: url(#Degradado_sin_nombre_9);
      }
    </style>
    <linearGradient id="Degradado_sin_nombre_9" data-name="Degradado sin nombre 9" x1="0" y1="36.34" x2="291.91" y2="36.34" gradientUnits="userSpaceOnUse">
      <stop offset="0" stop-color="#000"/>
      <stop offset=".04" stop-color="#020b0f"/>
      <stop offset=".19" stop-color="#0a3243"/>
      <stop offset=".32" stop-color="#104e69"/>
      <stop offset=".43" stop-color="#135f80"/>
      <stop offset=".49" stop-color="#156689"/>
      <stop offset=".57" stop-color="#155f7f"/>
      <stop offset=".7" stop-color="#174f66"/>
      <stop offset=".87" stop-color="#1a343e"/>
      <stop offset="1" stop-color="#1d1d1b"/>
    </linearGradient>
  </defs>
  <g id="Capa_1-2" data-name="Capa 1">
    <g>
      <rect class="cls-2" width="291.91" height="72.68" rx="10.61" ry="10.61"/>
      <g>
        <path class="cls-1" d="M64.14,47.54h-14.24c-3.69,0-5.53-2.06-5.53-6.19v-10.01c0-4.13,1.84-6.19,5.53-6.19h14.24v3.71h-9.55c-1.12,0-1.68.47-1.68,1.4v12.18c0,.93.56,1.4,1.68,1.4h9.55v3.71Z"/>
        <path class="cls-1" d="M88.99,42.78c0,1.59-.32,2.75-.95,3.5-.72.84-1.92,1.26-3.6,1.26h-13.3c-1.68,0-2.88-.42-3.6-1.26-.63-.75-.95-1.91-.95-3.5v-6.93c0-1.59.32-2.75.95-3.5.72-.84,1.92-1.26,3.6-1.26h13.3c1.68,0,2.88.42,3.6,1.26.63.75.95,1.91.95,3.5v6.93ZM80.73,43.09v-7.56c0-.82-.39-1.23-1.16-1.23h-3.57c-.77,0-1.16.41-1.16,1.23v7.56c0,.82.39,1.22,1.16,1.22h3.57c.77,0,1.16-.41,1.16-1.22Z"/>
        <path class="cls-1" d="M113.7,47.54h-8.26v-12.04c0-.79-.4-1.19-1.19-1.19h-3.43c-.75,0-1.12.4-1.12,1.19v12.04h-8.26v-16.45h7.88v1.72h.07c.47-1.14,1.21-1.72,2.24-1.72h6.65c3.62,0,5.42,1.94,5.42,5.81v10.64Z"/>
        <path class="cls-1" d="M138.76,47.54h-8.26v-12.04c0-.79-.4-1.19-1.19-1.19h-3.43c-.75,0-1.12.4-1.12,1.19v12.04h-8.26v-16.45h7.88v1.72h.07c.47-1.14,1.21-1.72,2.24-1.72h6.65c3.62,0,5.42,1.94,5.42,5.81v10.64Z"/>
        <path class="cls-1" d="M163.3,41.1h-13.83v1.54c0,1.12.57,1.68,1.72,1.68h11.76v3.22h-17.15c-1.68,0-2.86-.38-3.55-1.15s-1.03-2.02-1.03-3.75v-6.86c0-1.59.35-2.77,1.05-3.54.7-.77,1.88-1.16,3.54-1.16h12.92c1.66,0,2.83.39,3.54,1.16s1.05,1.95,1.05,3.54v5.32ZM155.25,37.88v-2.27c0-.86-.42-1.29-1.26-1.29h-3.25c-.84,0-1.26.43-1.26,1.29v2.27h5.78Z"/>
        <path class="cls-1" d="M184.16,47.54h-13.72c-1.66,0-2.93-.46-3.81-1.37-.82-.84-1.23-2.02-1.23-3.53v-6.65c0-1.52.43-2.71,1.28-3.59s2.11-1.31,3.76-1.31h13.72v3.22h-8.78c-1.14,0-1.72.56-1.72,1.68v6.65c0,1.12.57,1.68,1.72,1.68h8.78v3.22Z"/>
        <path class="cls-1" d="M204.88,47.54h-11.2c-1.33,0-2.41-.43-3.24-1.28-.83-.85-1.24-1.99-1.24-3.41v-8.54h-3.46v-3.22h3.46v-3.57h8.26v3.57h6.58v3.22h-6.58v8.79c0,.82.44,1.22,1.33,1.22h6.09v3.22Z"/>
        <path class="cls-1" d="M229.13,41.1h-13.83v1.54c0,1.12.57,1.68,1.72,1.68h11.76v3.22h-17.15c-1.68,0-2.86-.38-3.55-1.15s-1.03-2.02-1.03-3.75v-6.86c0-1.59.35-2.77,1.05-3.54.7-.77,1.88-1.16,3.54-1.16h12.92c1.66,0,2.83.39,3.54,1.16s1.05,1.95,1.05,3.54v5.32ZM221.08,37.88v-2.27c0-.86-.42-1.29-1.26-1.29h-3.25c-.84,0-1.26.43-1.26,1.29v2.27h5.78Z"/>
        <path class="cls-1" d="M247.54,35.67h-4.17c-1.38,0-2.31.18-2.8.54-.49.36-.73,1.03-.73,2.01v9.31h-8.26v-16.45h7.63v2.66h.07c.4-1.03.9-1.73,1.52-2.1.62-.37,1.52-.56,2.71-.56h4.03v4.58Z"/>
      </g>
    </g>
  </g>
</svg>