<?xml version="1.0" encoding="UTF-8"?>
<svg id="Capa_2" data-name="Capa 2" xmlns="http://www.w3.org/2000/svg" xmlns:xlink="http://www.w3.org/1999/xlink" viewBox="0 0 434.17 84.69">
  <defs>
    <style>
      .cls-1 {
        fill: #fff;
      }

      .cls-2 {
        fill: url(#Degradado_sin_nombre_14);
      }
    </style>
    <linearGradient id="Degradado_sin_nombre_14" data-name="Degradado sin nombre 14" x1="0" y1="42.34" x2="434.17" y2="42.34" gradientUnits="userSpaceOnUse">
      <stop offset=".09" stop-color="#000"/>
      <stop offset=".18" stop-color="#000405"/>
      <stop offset=".3" stop-color="#031015"/>
      <stop offset=".43" stop-color="#07232f"/>
      <stop offset=".58" stop-color="#0c3f54"/>
      <stop offset=".73" stop-color="#146183"/>
      <stop offset=".74" stop-color="#156689"/>
      <stop offset=".92" stop-color="#166f90"/>
      <stop offset="1" stop-color="#177596"/>
    </linearGradient>
  </defs>
  <g id="Capa_1-2" data-name="Capa 1">
    <g>
      <rect class="cls-2" width="434.17" height="84.69" rx="10.61" ry="10.61"/>
      <g>
        <path class="cls-1" d="M54.86,45.98c0,2.96-1.92,4.44-5.78,4.44h-17.67v-22.4h17.67c2.03,0,3.5.36,4.41,1.08.91.72,1.37,1.84,1.37,3.36v2.91c0,1.26-.47,2.15-1.4,2.66-.68.37-1.83.62-3.46.74v.07c1.8.23,2.99.49,3.57.77.86.44,1.29,1.23,1.29,2.34v4.03ZM46.32,35.73v-2.8c0-.79-.41-1.19-1.22-1.19h-5.15v5.25h5.15c.82,0,1.22-.42,1.22-1.26ZM46.32,45.49v-3.57c0-.82-.41-1.23-1.22-1.23h-5.15v6.02h5.15c.82,0,1.22-.41,1.22-1.23Z"/>
        <path class="cls-1" d="M80.1,50.43h-7.88v-1.71c-.47,1.14-1.22,1.71-2.25,1.71h-6.68c-3.63,0-5.45-1.94-5.45-5.81v-10.64h8.26v12.04c0,.79.4,1.19,1.19,1.19h3.43c.75,0,1.12-.4,1.12-1.19v-12.04h8.26v16.45Z"/>
        <path class="cls-1" d="M102.99,46.09c0,1.28-.43,2.33-1.28,3.13-.85.81-2,1.21-3.45,1.21h-15.71v-3.01h11.73c.68,0,1.01-.27,1.01-.81v-.52c0-.51-.34-.77-1.01-.77h-7.49c-2.82,0-4.24-1.37-4.24-4.1v-3.15c0-1.24.48-2.23,1.45-2.98.97-.75,2.16-1.12,3.59-1.12h15.4v3.01h-11.66c-.72,0-1.08.22-1.08.67v.59c0,.42.36.63,1.08.63h7.28c2.92,0,4.38,1.38,4.38,4.13v3.08Z"/>
        <path class="cls-1" d="M123.85,50.43h-13.72c-1.66,0-2.93-.46-3.81-1.37-.82-.84-1.23-2.02-1.23-3.53v-6.65c0-1.52.43-2.71,1.28-3.59s2.11-1.31,3.76-1.31h13.72v3.22h-8.78c-1.14,0-1.72.56-1.72,1.68v6.65c0,1.12.57,1.68,1.72,1.68h8.78v3.22Z"/>
        <path class="cls-1" d="M147.72,50.43h-7.88v-1.82c-.16.7-.48,1.18-.95,1.44s-1.2.38-2.18.38h-6.26c-1.67,0-2.86-.37-3.59-1.1-.73-.73-1.09-1.98-1.09-3.73v-1.5c0-1.7.35-2.93,1.05-3.67s1.87-1.12,3.5-1.12h9.13v-1.05c0-.7-.42-1.05-1.26-1.05h-11.65v-3.22h15.75c1.8,0,3.13.42,3.99,1.26.96.93,1.44,2.47,1.44,4.62v10.57ZM139.46,45.21v-2.7h-3.64c-.63,0-1.06.08-1.29.25-.33.19-.49.56-.49,1.12v2c0,.89.56,1.33,1.68,1.33h2.24c.63,0,1.04-.13,1.23-.4.19-.27.28-.8.28-1.59Z"/>
        <path class="cls-1" d="M166.44,38.56h-4.17c-1.38,0-2.31.18-2.8.54-.49.36-.73,1.03-.73,2.01v9.31h-8.26v-16.45h7.63v2.66h.07c.4-1.03.9-1.73,1.52-2.1.62-.37,1.52-.56,2.71-.56h4.03v4.58Z"/>
        <path class="cls-1" d="M203.3,50.43h-8.01v-1.75c-.56,1.17-1.2,1.75-1.93,1.75h-7.14c-3.36,0-5.04-1.66-5.04-4.97v-6.58c0-1.52.43-2.71,1.28-3.59.86-.88,2.12-1.31,3.78-1.31h6.68c1.08,0,1.78.54,2.11,1.61v-7.56h8.26v22.4ZM195.04,46.02v-7.63c0-.79-.37-1.19-1.12-1.19h-3.29c-.79,0-1.19.4-1.19,1.19v7.63c0,.79.4,1.19,1.19,1.19h3.29c.75,0,1.12-.4,1.12-1.19Z"/>
        <path class="cls-1" d="M215.02,32.37h-8.26v-4.34h8.26v4.34ZM215.02,50.43h-8.26v-16.45h8.26v16.45Z"/>
        <path class="cls-1" d="M238.26,46.09c0,1.28-.43,2.33-1.28,3.13-.85.81-2,1.21-3.45,1.21h-15.71v-3.01h11.73c.68,0,1.01-.27,1.01-.81v-.52c0-.51-.34-.77-1.01-.77h-7.49c-2.82,0-4.24-1.37-4.24-4.1v-3.15c0-1.24.48-2.23,1.45-2.98.97-.75,2.16-1.12,3.59-1.12h15.4v3.01h-11.66c-.72,0-1.08.22-1.08.67v.59c0,.42.36.63,1.08.63h7.28c2.92,0,4.38,1.38,4.38,4.13v3.08Z"/>
        <path class="cls-1" d="M262.83,45.53c0,1.52-.41,2.69-1.23,3.53-.89.91-2.17,1.37-3.83,1.37h-6.68c-1.08,0-1.78-.54-2.11-1.61v7.84h-8.26v-22.68h7.8v1.75c.61-1.17,1.32-1.75,2.13-1.75h7.14c3.36,0,5.04,1.66,5.04,4.97v6.58ZM254.57,46.02v-7.63c0-.79-.4-1.19-1.19-1.19h-3.29c-.75,0-1.12.4-1.12,1.19v7.63c0,.79.37,1.19,1.12,1.19h3.29c.79,0,1.19-.4,1.19-1.19Z"/>
        <path class="cls-1" d="M287.33,45.67c0,1.59-.32,2.75-.95,3.5-.72.84-1.92,1.26-3.6,1.26h-13.3c-1.68,0-2.88-.42-3.6-1.26-.63-.75-.95-1.91-.95-3.5v-6.93c0-1.59.32-2.75.95-3.5.72-.84,1.92-1.26,3.6-1.26h13.3c1.68,0,2.88.42,3.6,1.26.63.75.95,1.91.95,3.5v6.93ZM279.07,45.98v-7.56c0-.82-.39-1.23-1.16-1.23h-3.57c-.77,0-1.16.41-1.16,1.23v7.56c0,.82.39,1.22,1.16,1.22h3.57c.77,0,1.16-.41,1.16-1.22Z"/>
        <path class="cls-1" d="M309.87,46.09c0,1.28-.43,2.33-1.28,3.13-.85.81-2,1.21-3.45,1.21h-15.71v-3.01h11.73c.68,0,1.01-.27,1.01-.81v-.52c0-.51-.34-.77-1.01-.77h-7.49c-2.82,0-4.24-1.37-4.24-4.1v-3.15c0-1.24.48-2.23,1.45-2.98.97-.75,2.16-1.12,3.59-1.12h15.4v3.01h-11.66c-.72,0-1.08.22-1.08.67v.59c0,.42.36.63,1.08.63h7.28c2.92,0,4.38,1.38,4.38,4.13v3.08Z"/>
        <path class="cls-1" d="M320.93,32.37h-8.26v-4.34h8.26v4.34ZM320.93,50.43h-8.26v-16.45h8.26v16.45Z"/>
        <path class="cls-1" d="M342.56,50.43h-11.2c-1.33,0-2.41-.43-3.24-1.28-.83-.85-1.24-1.99-1.24-3.41v-8.54h-3.46v-3.22h3.46v-3.57h8.26v3.57h6.58v3.22h-6.58v8.79c0,.82.44,1.22,1.33,1.22h6.09v3.22Z"/>
        <path class="cls-1" d="M353.69,32.37h-8.26v-4.34h8.26v4.34ZM353.69,50.43h-8.26v-16.45h8.26v16.45Z"/>
        <path class="cls-1" d="M379.06,33.98l-6.72,16.45h-8.79l-7.25-16.45h9.03l5.18,12.18,4.97-12.18h3.57Z"/>
        <path class="cls-1" d="M402.76,45.67c0,1.59-.32,2.75-.95,3.5-.72.84-1.92,1.26-3.6,1.26h-13.3c-1.68,0-2.88-.42-3.6-1.26-.63-.75-.95-1.91-.95-3.5v-6.93c0-1.59.32-2.75.95-3.5.72-.84,1.92-1.26,3.6-1.26h13.3c1.68,0,2.88.42,3.6,1.26.63.75.95,1.91.95,3.5v6.93ZM394.5,45.98v-7.56c0-.82-.39-1.23-1.16-1.23h-3.57c-.77,0-1.16.41-1.16,1.23v7.56c0,.82.39,1.22,1.16,1.22h3.57c.77,0,1.16-.41,1.16-1.22Z"/>
      </g>
    </g>
  </g>
</svg>