<?xml version="1.0" encoding="UTF-8"?>
<svg id="Capa_2" data-name="Capa 2" xmlns="http://www.w3.org/2000/svg" xmlns:xlink="http://www.w3.org/1999/xlink" viewBox="0 0 434.17 84.69">
  <defs>
    <style>
      .cls-1 {
        fill: #fff;
      }

      .cls-2 {
        fill: url(#Degradado_sin_nombre_14);
      }
    </style>
    <linearGradient id="Degradado_sin_nombre_14" data-name="Degradado sin nombre 14" x1="0" y1="42.34" x2="434.17" y2="42.34" gradientUnits="userSpaceOnUse">
      <stop offset=".09" stop-color="#000"/>
      <stop offset=".18" stop-color="#000405"/>
      <stop offset=".3" stop-color="#031015"/>
      <stop offset=".43" stop-color="#07232f"/>
      <stop offset=".58" stop-color="#0c3f54"/>
      <stop offset=".73" stop-color="#146183"/>
      <stop offset=".74" stop-color="#156689"/>
      <stop offset=".92" stop-color="#166f90"/>
      <stop offset="1" stop-color="#177596"/>
    </linearGradient>
  </defs>
  <g id="Capa_1-2" data-name="Capa 1">
    <g>
      <rect class="cls-2" width="434.17" height="84.69" rx="10.61" ry="10.61"/>
      <g>
        <path class="cls-1" d="M63.12,53.54h-19.39v-22.4h19.39v3.71h-10.85v5.25h9.94v3.71h-9.94v6.02h10.85v3.71Z"/>
        <path class="cls-1" d="M88.22,53.54h-8.26v-12.04c0-.79-.4-1.19-1.19-1.19h-3.43c-.75,0-1.12.4-1.12,1.19v12.04h-8.26v-16.45h7.88v1.72h.07c.47-1.14,1.21-1.72,2.24-1.72h6.65c3.62,0,5.42,1.94,5.42,5.81v10.64Z"/>
        <path class="cls-1" d="M112.65,53.54h-7.88v-1.82c-.16.7-.48,1.18-.95,1.44s-1.2.38-2.18.38h-6.26c-1.67,0-2.86-.37-3.59-1.1-.73-.73-1.09-1.98-1.09-3.73v-1.5c0-1.7.35-2.93,1.05-3.67s1.87-1.12,3.5-1.12h9.13v-1.05c0-.7-.42-1.05-1.26-1.05h-11.65v-3.22h15.75c1.8,0,3.13.42,3.99,1.26.96.93,1.44,2.47,1.44,4.62v10.57ZM104.39,48.33v-2.7h-3.64c-.63,0-1.06.08-1.29.25-.33.19-.49.56-.49,1.12v2c0,.89.56,1.33,1.68,1.33h2.24c.63,0,1.04-.13,1.23-.4.19-.27.28-.8.28-1.59Z"/>
        <path class="cls-1" d="M137.88,48.57c0,3.31-1.68,4.97-5.04,4.97h-7.14c-.68,0-1.3-.58-1.86-1.75v1.75h-8.08v-22.4h8.26v7.56c.33-1.07,1.03-1.61,2.11-1.61h6.68c1.66,0,2.94.46,3.83,1.37.82.84,1.23,2.02,1.23,3.54v6.58ZM129.62,49.13v-7.63c0-.79-.4-1.19-1.19-1.19h-3.29c-.75,0-1.12.4-1.12,1.19v7.63c0,.79.37,1.19,1.12,1.19h3.29c.79,0,1.19-.4,1.19-1.19Z"/>
        <path class="cls-1" d="M148.94,53.54h-8.26v-22.4h8.26v22.4Z"/>
        <path class="cls-1" d="M173.83,47.1h-13.83v1.54c0,1.12.57,1.68,1.72,1.68h11.76v3.22h-17.15c-1.68,0-2.86-.38-3.55-1.15s-1.03-2.02-1.03-3.75v-6.86c0-1.59.35-2.77,1.05-3.54.7-.77,1.88-1.16,3.54-1.16h12.92c1.66,0,2.83.39,3.54,1.16s1.05,1.95,1.05,3.54v5.32ZM165.78,43.88v-2.27c0-.86-.42-1.29-1.26-1.29h-3.25c-.84,0-1.26.43-1.26,1.29v2.27h5.78Z"/>
        <path class="cls-1" d="M212.85,49.1c0,2.96-1.92,4.44-5.78,4.44h-17.67v-22.4h17.67c2.03,0,3.5.36,4.41,1.08.91.72,1.37,1.84,1.37,3.36v2.91c0,1.26-.47,2.15-1.4,2.66-.68.37-1.83.62-3.46.74v.07c1.8.23,2.99.49,3.57.77.86.44,1.29,1.23,1.29,2.34v4.03ZM204.31,38.84v-2.8c0-.79-.41-1.19-1.22-1.19h-5.15v5.25h5.15c.82,0,1.22-.42,1.22-1.26ZM204.31,48.61v-3.57c0-.82-.41-1.23-1.22-1.23h-5.15v6.02h5.15c.82,0,1.22-.41,1.22-1.23Z"/>
        <path class="cls-1" d="M224.44,53.54h-8.26v-22.4h8.26v22.4Z"/>
        <path class="cls-1" d="M249.85,53.54h-7.88v-1.71c-.47,1.14-1.22,1.71-2.25,1.71h-6.68c-3.63,0-5.45-1.94-5.45-5.81v-10.64h8.26v12.04c0,.79.4,1.19,1.19,1.19h3.43c.75,0,1.12-.4,1.12-1.19v-12.04h8.26v16.45Z"/>
        <path class="cls-1" d="M274.38,47.1h-13.83v1.54c0,1.12.57,1.68,1.72,1.68h11.76v3.22h-17.15c-1.68,0-2.86-.38-3.55-1.15s-1.03-2.02-1.03-3.75v-6.86c0-1.59.35-2.77,1.05-3.54.7-.77,1.88-1.16,3.54-1.16h12.92c1.66,0,2.83.39,3.54,1.16s1.05,1.95,1.05,3.54v5.32ZM266.33,43.88v-2.27c0-.86-.42-1.29-1.26-1.29h-3.25c-.84,0-1.26.43-1.26,1.29v2.27h5.78Z"/>
        <path class="cls-1" d="M295.31,53.54h-11.2c-1.33,0-2.41-.43-3.24-1.28-.83-.85-1.24-1.99-1.24-3.41v-8.54h-3.46v-3.22h3.46v-3.57h8.26v3.57h6.58v3.22h-6.58v8.79c0,.82.44,1.22,1.33,1.22h6.09v3.22Z"/>
        <path class="cls-1" d="M319.88,48.78c0,1.59-.32,2.75-.95,3.5-.72.84-1.92,1.26-3.6,1.26h-13.3c-1.68,0-2.88-.42-3.6-1.26-.63-.75-.95-1.91-.95-3.5v-6.93c0-1.59.32-2.75.95-3.5.72-.84,1.92-1.26,3.6-1.26h13.3c1.68,0,2.88.42,3.6,1.26.63.75.95,1.91.95,3.5v6.93ZM311.62,49.1v-7.56c0-.82-.39-1.23-1.16-1.23h-3.57c-.77,0-1.16.41-1.16,1.23v7.56c0,.82.39,1.22,1.16,1.22h3.57c.77,0,1.16-.41,1.16-1.22Z"/>
        <path class="cls-1" d="M344.38,48.78c0,1.59-.32,2.75-.95,3.5-.72.84-1.92,1.26-3.6,1.26h-13.3c-1.68,0-2.88-.42-3.6-1.26-.63-.75-.95-1.91-.95-3.5v-6.93c0-1.59.32-2.75.95-3.5.72-.84,1.92-1.26,3.6-1.26h13.3c1.68,0,2.88.42,3.6,1.26.63.75.95,1.91.95,3.5v6.93ZM336.12,49.1v-7.56c0-.82-.39-1.23-1.16-1.23h-3.57c-.77,0-1.16.41-1.16,1.23v7.56c0,.82.39,1.22,1.16,1.22h3.57c.77,0,1.16-.41,1.16-1.22Z"/>
        <path class="cls-1" d="M365.31,53.54h-11.2c-1.33,0-2.41-.43-3.24-1.28-.83-.85-1.24-1.99-1.24-3.41v-8.54h-3.46v-3.22h3.46v-3.57h8.26v3.57h6.58v3.22h-6.58v8.79c0,.82.44,1.22,1.33,1.22h6.09v3.22Z"/>
        <path class="cls-1" d="M390.44,53.54h-8.26v-12.04c0-.79-.4-1.19-1.19-1.19h-3.43c-.75,0-1.12.4-1.12,1.19v12.04h-8.26v-22.4h8.26v7.56h.07c.61-1.07,1.22-1.61,1.85-1.61h6.65c3.62,0,5.42,1.94,5.42,5.81v10.64Z"/>
      </g>
    </g>
  </g>
</svg>