<?xml version="1.0" encoding="UTF-8"?>
<svg id="Capa_2" data-name="Capa 2" xmlns="http://www.w3.org/2000/svg" xmlns:xlink="http://www.w3.org/1999/xlink" viewBox="0 0 434.17 84.69">
  <defs>
    <style>
      .cls-1 {
        fill: #fff;
      }

      .cls-2 {
        fill: url(#Degradado_sin_nombre_14);
      }
    </style>
    <linearGradient id="Degradado_sin_nombre_14" data-name="Degradado sin nombre 14" x1="0" y1="42.34" x2="434.17" y2="42.34" gradientUnits="userSpaceOnUse">
      <stop offset=".09" stop-color="#000"/>
      <stop offset=".18" stop-color="#000405"/>
      <stop offset=".3" stop-color="#031015"/>
      <stop offset=".43" stop-color="#07232f"/>
      <stop offset=".58" stop-color="#0c3f54"/>
      <stop offset=".73" stop-color="#146183"/>
      <stop offset=".74" stop-color="#156689"/>
      <stop offset=".92" stop-color="#166f90"/>
      <stop offset="1" stop-color="#177596"/>
    </linearGradient>
  </defs>
  <g id="Capa_1-2" data-name="Capa 1">
    <g>
      <rect class="cls-2" width="434.17" height="84.69" rx="10.61" ry="10.61"/>
      <g>
        <path class="cls-1" d="M62.21,48.26c0,3.52-1.68,5.29-5.04,5.29h-16.52v-3.71h11.97c.89,0,1.33-.33,1.33-.98v-1.54c0-.65-.48-.98-1.44-.98h-7.31c-1.63,0-2.8-.36-3.5-1.07-.7-.71-1.05-1.92-1.05-3.62v-5.35c0-1.49.36-2.7,1.08-3.6.79-1.03,1.95-1.54,3.46-1.54h17.01v3.71h-11.79c-1,0-1.5.3-1.5.91v1.43c0,.58.5.88,1.5.88h6.37c3.62,0,5.42,1.44,5.42,4.31v5.88Z"/>
        <path class="cls-1" d="M86.92,47.1h-13.82v1.54c0,1.12.57,1.68,1.72,1.68h11.76v3.22h-17.15c-1.68,0-2.86-.38-3.55-1.15-.69-.77-1.03-2.02-1.03-3.75v-6.86c0-1.59.35-2.77,1.05-3.54.7-.77,1.88-1.16,3.53-1.16h12.92c1.66,0,2.83.39,3.54,1.16s1.05,1.95,1.05,3.54v5.32ZM78.87,43.88v-2.27c0-.86-.42-1.29-1.26-1.29h-3.25c-.84,0-1.26.43-1.26,1.29v2.27h5.77Z"/>
        <path class="cls-1" d="M111.01,53.54h-7.88v-1.82c-.16.7-.48,1.18-.95,1.44s-1.2.38-2.18.38h-6.26c-1.67,0-2.86-.37-3.59-1.1-.73-.73-1.09-1.98-1.09-3.73v-1.5c0-1.7.35-2.93,1.05-3.67s1.87-1.12,3.5-1.12h9.13v-1.05c0-.7-.42-1.05-1.26-1.05h-11.65v-3.22h15.75c1.8,0,3.13.42,3.99,1.26.96.93,1.44,2.47,1.44,4.62v10.57ZM102.74,48.33v-2.7h-3.64c-.63,0-1.06.08-1.29.25-.33.19-.49.56-.49,1.12v2c0,.89.56,1.33,1.68,1.33h2.24c.63,0,1.04-.13,1.23-.4.19-.27.28-.8.28-1.59Z"/>
        <path class="cls-1" d="M129.73,41.68h-4.17c-1.38,0-2.31.18-2.8.54-.49.36-.73,1.03-.73,2.01v9.31h-8.26v-16.45h7.63v2.66h.07c.4-1.03.9-1.73,1.52-2.1.62-.37,1.52-.56,2.71-.56h4.03v4.58Z"/>
        <path class="cls-1" d="M150.59,53.54h-13.72c-1.66,0-2.93-.46-3.81-1.37-.82-.84-1.23-2.02-1.23-3.53v-6.65c0-1.52.43-2.71,1.28-3.59s2.11-1.31,3.76-1.31h13.72v3.22h-8.78c-1.14,0-1.72.56-1.72,1.68v6.65c0,1.12.57,1.68,1.72,1.68h8.78v3.22Z"/>
        <path class="cls-1" d="M175.44,53.54h-8.26v-12.04c0-.79-.4-1.19-1.19-1.19h-3.43c-.75,0-1.12.4-1.12,1.19v12.04h-8.26v-22.4h8.26v7.56h.07c.61-1.07,1.22-1.61,1.85-1.61h6.65c3.62,0,5.42,1.94,5.42,5.81v10.64Z"/>
        <path class="cls-1" d="M208.79,34.36h-5.57c-.89,0-1.33.41-1.33,1.23v1.5h6.58v3.22h-6.58v13.23h-8.26v-13.23h-3.46v-3.22h3.46v-1.5c0-1.42.41-2.52,1.22-3.29s1.9-1.15,3.25-1.15h10.68v3.22Z"/>
        <path class="cls-1" d="M232.94,48.78c0,1.59-.32,2.75-.95,3.5-.72.84-1.92,1.26-3.6,1.26h-13.3c-1.68,0-2.88-.42-3.6-1.26-.63-.75-.95-1.91-.95-3.5v-6.93c0-1.59.32-2.75.95-3.5.72-.84,1.92-1.26,3.6-1.26h13.3c1.68,0,2.88.42,3.6,1.26.63.75.95,1.91.95,3.5v6.93ZM224.68,49.1v-7.56c0-.82-.39-1.23-1.16-1.23h-3.57c-.77,0-1.16.41-1.16,1.23v7.56c0,.82.39,1.22,1.16,1.22h3.57c.77,0,1.16-.41,1.16-1.22Z"/>
        <path class="cls-1" d="M251.35,41.68h-4.17c-1.38,0-2.31.18-2.8.54-.49.36-.73,1.03-.73,2.01v9.31h-8.26v-16.45h7.63v2.66h.07c.4-1.03.9-1.73,1.52-2.1.62-.37,1.52-.56,2.71-.56h4.03v4.58Z"/>
        <path class="cls-1" d="M288.21,53.54h-8.01v-1.75c-.56,1.17-1.2,1.75-1.93,1.75h-7.14c-3.36,0-5.04-1.66-5.04-4.97v-6.58c0-1.52.43-2.71,1.28-3.59.86-.88,2.12-1.31,3.78-1.31h6.68c1.08,0,1.78.54,2.11,1.61v-7.56h8.26v22.4ZM279.95,49.13v-7.63c0-.79-.37-1.19-1.12-1.19h-3.29c-.79,0-1.19.4-1.19,1.19v7.63c0,.79.4,1.19,1.19,1.19h3.29c.75,0,1.12-.4,1.12-1.19Z"/>
        <path class="cls-1" d="M313.06,47.1h-13.83v1.54c0,1.12.57,1.68,1.72,1.68h11.76v3.22h-17.15c-1.68,0-2.86-.38-3.55-1.15s-1.03-2.02-1.03-3.75v-6.86c0-1.59.35-2.77,1.05-3.54.7-.77,1.88-1.16,3.54-1.16h12.92c1.66,0,2.83.39,3.54,1.16s1.05,1.95,1.05,3.54v5.32ZM305.01,43.88v-2.27c0-.86-.42-1.29-1.26-1.29h-3.25c-.84,0-1.26.43-1.26,1.29v2.27h5.78Z"/>
        <path class="cls-1" d="M337.03,37.09l-6.72,16.45h-8.79l-7.25-16.45h9.03l5.18,12.18,4.97-12.18h3.57Z"/>
        <path class="cls-1" d="M347.99,35.48h-8.26v-4.34h8.26v4.34ZM347.99,53.54h-8.26v-16.45h8.26v16.45Z"/>
        <path class="cls-1" d="M369.55,53.54h-13.72c-1.66,0-2.93-.46-3.81-1.37-.82-.84-1.23-2.02-1.23-3.53v-6.65c0-1.52.43-2.71,1.28-3.59s2.11-1.31,3.76-1.31h13.72v3.22h-8.78c-1.14,0-1.72.56-1.72,1.68v6.65c0,1.12.57,1.68,1.72,1.68h8.78v3.22Z"/>
        <path class="cls-1" d="M393.52,47.1h-13.83v1.54c0,1.12.57,1.68,1.72,1.68h11.76v3.22h-17.15c-1.68,0-2.86-.38-3.55-1.15s-1.03-2.02-1.03-3.75v-6.86c0-1.59.35-2.77,1.05-3.54.7-.77,1.88-1.16,3.54-1.16h12.92c1.66,0,2.83.39,3.54,1.16s1.05,1.95,1.05,3.54v5.32ZM385.47,43.88v-2.27c0-.86-.42-1.29-1.26-1.29h-3.25c-.84,0-1.26.43-1.26,1.29v2.27h5.78Z"/>
      </g>
    </g>
  </g>
</svg>